<?xml version="1.0" encoding="UTF-8" standalone="no"?>
<!-- Created with Inkscape (http://www.inkscape.org/) -->

<svg
   width="300.26459mm"
   height="300.26459mm"
   viewBox="0 0 300.26459 300.26459"
   version="1.1"
   id="svg5"
   inkscape:version="1.1 (c4e8f9e, 2021-05-24)"
   sodipodi:docname="male_front.svg"
   inkscape:export-filename="/Users/khaine/Documents/Vector/parallax rocks idea/whole thing.png"
   inkscape:export-xdpi="96"
   inkscape:export-ydpi="96"
   xmlns:inkscape="http://www.inkscape.org/namespaces/inkscape"
   xmlns:sodipodi="http://sodipodi.sourceforge.net/DTD/sodipodi-0.dtd"
   xmlns="http://www.w3.org/2000/svg"
   xmlns:svg="http://www.w3.org/2000/svg">
  <sodipodi:namedview
     id="namedview7"
     pagecolor="#505050"
     bordercolor="#eeeeee"
     borderopacity="1"
     inkscape:pageshadow="0"
     inkscape:pageopacity="0"
     inkscape:pagecheckerboard="0"
     inkscape:document-units="mm"
     showgrid="false"
     inkscape:snap-global="false"
     inkscape:zoom="0.37666432"
     inkscape:cx="232.30233"
     inkscape:cy="373.01117"
     inkscape:window-width="1312"
     inkscape:window-height="847"
     inkscape:window-x="0"
     inkscape:window-y="25"
     inkscape:window-maximized="0"
     inkscape:current-layer="layer2" />
  <defs
     id="defs2">
    <inkscape:path-effect
       effect="spiro"
       id="path-effect1157"
       is_visible="true"
       lpeversion="1" />
  </defs>
  <g
     inkscape:label="Layer 1"
     inkscape:groupmode="layer"
     id="layer1"
     transform="translate(57.453298,-103.75029)"
     style="display:none;opacity:1">
    <path
       style="fill:#b3b3b3;stroke:none;stroke-width:0.264583px;stroke-linecap:butt;stroke-linejoin:miter;stroke-opacity:1"
       d="m 134.70217,255.67116 c 26.09109,-18.04633 28.26535,-20.65544 38.04951,-15.65465 9.78415,5.00079 10.40737,14.49349 9.97252,18.18973 -1.99804,-4.59311 -5.84144,-6.88359 -9.32025,-7.10101 6.39063,4.80117 6.74956,5.19572 6.96699,14.11017 -4.78337,-6.08791 -6.31471,-7.80483 -13.27233,-7.58741 2.17425,2.17426 3.26139,2.82654 2.60911,9.78416 -3.69624,-4.13108 -8.91446,-15.65465 -28.48278,2.60911 -19.56831,18.26376 -6.52277,-14.3501 -6.52277,-14.3501 z"
       id="path2945"
       sodipodi:nodetypes="cscccccsc" />
    <path
       id="rect2472-5"
       style="display:inline;fill:#b3b3b3;stroke-width:0.264583"
       d="m 41.403603,307.30633 -14.759307,0.61495 -10.454659,53.50268 22.139217,1.2299 z m 88.316057,1.2299 -2.42259,54.73258 22.03431,0.61495 -7.45278,-55.34753 z" />
    <path
       id="path1225"
       style="fill:#ececec;stroke:none;stroke-width:0.999999px;stroke-linecap:butt;stroke-linejoin:miter;stroke-opacity:1"
       d="m 432.36719,269.80859 c -16.55391,-0.20869 -34.7925,1.47422 -54.79883,5.39649 -101.39333,19.87831 -134.47481,148.91928 -137.61328,183.2539 -3.94853,43.19653 28.88624,62.92255 96.99023,69.01368 -49.94759,89.65912 -90.74572,217.52983 -40.3789,292.03906 6.93517,10.25941 20.79651,18.64262 39.58203,25.41797 l -27.01563,138.25195 83.67578,4.64844 7.10938,-127.96875 c 102.31214,15.47507 251.92806,10.03986 334.98437,-1.5625 l -5.83593,131.85547 83.27929,2.32422 -19.89453,-147.75 c 0.64316,-0.38526 1.22224,-0.7716 1.70508,-1.15821 65.36402,-52.33757 40.46418,-302.11102 -103.91797,-298.27929 -144.38214,3.83168 -142.32845,-8.49996 -143.60351,-46.60157 1.11397,-44.24711 23.2053,-67.44161 19.65625,-114.69531 -4.26347,-56.76518 -44.53273,-113.05859 -133.92383,-114.18555 z"
       transform="matrix(0.26458333,0,0,0.26458333,-57.453298,103.75029)" />
  </g>
  <g
     inkscape:groupmode="layer"
     id="layer2"
     inkscape:label="owo"
     style="display:inline">
    <path
       id="path5794"
       style="display:inline;fill:#6a554d;fill-opacity:1;stroke:none;stroke-width:0.316966px;stroke-linecap:butt;stroke-linejoin:miter;stroke-opacity:1"
       d="m 107.05324,63.95358 c 0,0 -8.974376,3.82962 -14.418756,11.08925 0.10724,-0.0478 0.21399,-0.0963 0.32195,-0.14314 0.1838,-0.0797 0.3691,-0.15785 0.555,-0.23462 0.1859,-0.0768 0.37268,-0.15205 0.56069,-0.22582 0.18801,-0.0738 0.37677,-0.14579 0.56689,-0.21652 0.19012,-0.0707 0.38136,-0.1401 0.57361,-0.20774 0.19224,-0.0676 0.38595,-0.13393 0.58033,-0.19844 0.19438,-0.0645 0.38948,-0.1273 0.58601,-0.18862 0.19652,-0.0613 0.39405,-0.12124 0.59272,-0.17932 0.19868,-0.0581 0.39861,-0.1142 0.59945,-0.16898 0.20084,-0.0548 0.40264,-0.10825 0.60565,-0.15968 0.20301,-0.0514 0.40717,-0.10079 0.61236,-0.14883 0.2052,-0.048 0.4117,-0.0944 0.61909,-0.13901 0.20738,-0.0446 0.4157,-0.0876 0.625276,-0.12867 0.33084,-0.0649 0.65984,-0.12733 0.98702,-0.18759 0.32719,-0.0603 0.65263,-0.11846 0.97617,-0.17415 0.32355,-0.0557 0.6454,-0.10902 0.96532,-0.1602 0.004,-5.2e-4 0.007,-0.001 0.0108,-0.002 2.22784,-4.64471 4.08037,-8.22637 4.08037,-8.22637 z" />
    <path
       style="display:inline;fill:#6a554d;fill-opacity:1;stroke:none;stroke-width:0.447896px;stroke-linecap:butt;stroke-linejoin:miter;stroke-opacity:1"
       d="m 116.00638,87.95554 c 3.56405,-13.12595 36.61727,-20.1574 36.61727,-20.1574 0,0 -17.38809,16.58521 -23.72963,27.04665 -6.34154,10.46145 -14.23257,-1.93606 -12.88764,-6.88925 z"
       id="path4397"
       sodipodi:nodetypes="sczs" />
    <path
       id="path4861"
       style="display:inline;fill:#ffffff;stroke:none;stroke-width:0.264583px;stroke-linecap:butt;stroke-linejoin:miter;stroke-opacity:1"
       d="m 84.403464,103.32069 c -2.64624,-0.0195 -5.88373,2.41056 -10.09602,8.18296 -4.26509,5.84475 -5.74114,3.62332 -10.366296,7.30291 -0.149,0.90922 -0.257194,1.71966 -0.31781,2.3828 -0.973103,10.64566 6.507166,15.89965 22.097876,17.87282 1.46824,0.1727 2.7661,0.30787 3.56412,0.38705 -0.19242,0.34542 -0.38227,0.69992 -0.57361,1.04955 4.72679,-3.35355 9.1763,-7.37868 12.696896,-11.52178 7.86401,-9.25447 -6.061916,-7.48881 -8.914696,-15.33394 -2.26314,-6.22366 -4.68816,-10.29739 -8.09046,-10.32237 z" />
    <path
       style="display:inline;fill:#e28eb9;fill-opacity:1;stroke:none;stroke-width:0.264583px;stroke-linecap:butt;stroke-linejoin:miter;stroke-opacity:1"
       d="m 72.524354,120.06184 6.77533,0.7132 -3.92256,3.20937 z"
       id="path4626" />
    <path
       id="path5237"
       style="display:inline;fill:#ffffff;stroke-width:0.264583"
       d="m 148.26068,141.65685 c 0.83562,7.92862 11.99459,22.26634 22.41362,22.26634 9.59573,0 23.17662,-9.08395 26.15189,-16.49718 -4.16091,-2.20466 -8.93161,-3.40576 -14.33608,-3.26234 -20.64124,0.54779 -29.96074,-0.15648 -34.22943,-2.50682 z" />
    <g
       id="g9137"
       transform="matrix(0.93138713,-0.33101654,0.44526728,0.91541867,10.094265,35.724163)">
      <rect
         style="fill:#333333;stroke-width:0.264583"
         id="rect8786"
         width="46.822716"
         height="5.9543343"
         x="36.53796"
         y="66.580276"
         ry="0" />
      <rect
         style="fill:#333333;stroke-width:0.264583"
         id="rect8788"
         width="36.267307"
         height="33.560791"
         x="41.815666"
         y="35.726006"
         ry="3.2478185" />
      <path
         id="path8917"
         style="fill:#ff0000;stroke-width:0.999999"
         d="m 158.04297,231.64258 v 17.95312 c 0,0.69812 0.0602,1.3814 0.17187,2.04688 h 136.73047 c 0.1117,-0.66548 0.17188,-1.34876 0.17188,-2.04688 v -17.95312 z"
         transform="scale(0.26458333)" />
    </g>
  </g>
</svg>
